<?xml version="1.0" encoding="UTF-8"?>
<svg version="1.1" xmlns="http://www.w3.org/2000/svg" width="225" height="225">
<path d="M0 0 C74.25 0 148.5 0 225 0 C225 74.25 225 148.5 225 225 C150.75 225 76.5 225 0 225 C0 150.75 0 76.5 0 0 Z " fill="#FEFEFE" transform="translate(0,0)"/>
<path d="M0 0 C7.60405678 4.35842279 15.59674616 11.97667104 18 20.625 C19.09238821 27.21419274 17.68398303 32.15523659 14 37.625 C8.17306359 44.57175646 1.76948881 50.99630068 -4.65063477 57.38916016 C-6.02785957 58.766604 -6.02785957 58.766604 -7.4329071 60.171875 C-9.9176658 62.65691717 -12.40546533 65.1388937 -14.89388013 67.62027407 C-17.50617873 70.22626327 -20.11558995 72.83514062 -22.72532654 75.44369507 C-27.6529195 80.36819686 -32.5830528 85.29014703 -37.5141353 90.21115434 C-43.13413167 95.81992029 -48.75124238 101.43157247 -54.3681289 107.0434525 C-65.90890904 118.57381847 -77.45325442 130.10060789 -89 141.625 C-91.97151477 140.19880422 -94.06359013 138.80693693 -96.39160156 136.46044922 C-97.35214447 135.49967972 -97.35214447 135.49967972 -98.33209229 134.51950073 C-99.01140808 133.82986237 -99.69072388 133.140224 -100.390625 132.4296875 C-101.09523865 131.72224396 -101.79985229 131.01480042 -102.52581787 130.28591919 C-104.7719539 128.02860138 -107.01103009 125.76442367 -109.25 123.5 C-110.77297717 121.96699047 -112.29640939 120.43443285 -113.8203125 118.90234375 C-117.55216815 115.14845427 -121.27825351 111.38891086 -125 107.625 C-123.52751689 104.22582088 -121.62880888 101.99844524 -119.02366638 99.38124084 C-118.19250809 98.54155258 -117.36134979 97.70186432 -116.50500488 96.83673096 C-115.59126099 95.92389343 -114.67751709 95.01105591 -113.73608398 94.07055664 C-112.76478184 93.09326812 -111.79389059 92.11557107 -110.82337952 91.13749695 C-108.18736803 88.48382352 -105.54490478 85.83666658 -102.90068698 83.19117284 C-101.24683071 81.53589384 -99.59440729 79.87919839 -97.94249153 78.22198296 C-92.17302429 72.43401061 -86.39841026 66.65123116 -80.61889648 60.87329102 C-75.242995 55.49858914 -69.87832682 50.11285531 -64.51886123 44.72176844 C-59.90932875 40.08601747 -55.2920493 35.45807896 -50.6687513 30.83605665 C-47.91116216 28.07897576 -45.15671977 25.31892683 -42.41003227 22.55098152 C-39.8227176 19.94419204 -37.2258238 17.3473291 -34.62152672 14.75750923 C-33.22222956 13.36127469 -31.83275755 11.95521463 -30.44369507 10.54879761 C-21.79794552 1.98828633 -12.51218262 -5.26166231 0 0 Z " fill="#03EED1" transform="translate(207,2.375)"/>
<path d="M0 0 C1.82176254 -0.00956978 1.82176254 -0.00956978 3.68032837 -0.01933289 C4.98770966 -0.02044571 6.29509094 -0.02155853 7.64208984 -0.02270508 C8.99921707 -0.02591915 10.35634396 -0.02928334 11.71347046 -0.03279114 C14.55296635 -0.03876997 17.39243185 -0.04063216 20.23193359 -0.04003906 C23.87496096 -0.03993713 27.51779477 -0.0536263 31.16077614 -0.07081127 C33.96083478 -0.08190965 36.76084614 -0.083959 39.56092453 -0.08342934 C41.55850413 -0.08518653 43.55606899 -0.0960345 45.55361938 -0.10697937 C46.76182343 -0.10390274 47.97002747 -0.10082611 49.21484375 -0.09765625 C50.81557236 -0.09979378 50.81557236 -0.09979378 52.44863892 -0.10197449 C54.97802734 0.14526367 54.97802734 0.14526367 56.97802734 2.14526367 C57.53242102 7.35656422 57.53242102 7.35656422 55.80461121 9.81460571 C53.27690418 11.65602868 51.55183183 11.51067434 48.44018555 11.49829102 C47.30503006 11.50194672 46.16987457 11.50560242 45.00032043 11.5093689 C43.77222153 11.50007355 42.54412262 11.4907782 41.27880859 11.48120117 C38.68180091 11.49371797 36.08479569 11.50675528 33.48779297 11.52026367 C29.39081832 11.52730199 25.29396906 11.520922 21.19702148 11.50561523 C17.24489676 11.49252956 13.29337711 11.5187658 9.34130859 11.54370117 C8.12333084 11.53035736 6.90535309 11.51701355 5.65046692 11.50326538 C-0.48069109 11.55632438 -5.12275275 11.96799712 -10.35115051 15.29141235 C-17.04128188 22.71441001 -16.59678258 30.64987502 -16.53955078 40.13916016 C-16.54497787 41.65281852 -16.55210382 43.16647159 -16.56079102 44.68011475 C-16.57895929 48.77322282 -16.57198353 52.86592564 -16.55927467 56.9590404 C-16.54911131 61.25363386 -16.55854976 65.5481938 -16.56481934 69.8427887 C-16.57208684 77.05443517 -16.56253247 84.26591753 -16.54345703 91.47753906 C-16.52169821 99.79940627 -16.52873596 108.12088128 -16.55076265 116.44273895 C-16.56895216 123.60310058 -16.57145743 130.76334457 -16.56100798 137.92372185 C-16.55479144 142.19349563 -16.5538863 146.46308546 -16.56715393 150.73284721 C-16.5787634 154.74922283 -16.5705946 158.76509613 -16.5475769 162.78141785 C-16.5423165 164.24990063 -16.54375758 165.71842614 -16.55262756 167.18689156 C-16.59641399 175.1764793 -16.53634824 182.28953195 -12.02197266 189.14526367 C-7.31132963 193.74101296 -3.67779051 194.27031859 2.74554443 194.28570557 C3.43737265 194.28867669 4.12920086 194.29164781 4.84199357 194.29470897 C7.16567066 194.30339683 9.48929623 194.30490429 11.81298828 194.30639648 C13.47692983 194.31102464 15.14087032 194.3160493 16.80480957 194.32144165 C21.32975061 194.33456889 25.8546768 194.34101137 30.3796339 194.34545231 C33.20676816 194.34838283 36.03389836 194.35248763 38.86103058 194.35695648 C47.70675187 194.37063297 56.55246389 194.38029859 65.39819503 194.38415837 C75.6085448 194.38863805 85.81876062 194.40618112 96.02906966 194.43515897 C103.9213214 194.45678012 111.81353547 194.4668629 119.70581651 194.46819949 C124.41936531 194.46924731 129.13278823 194.47515015 133.84630585 194.4930191 C138.2819069 194.509507 142.71728754 194.51165181 147.15290833 194.5028801 C148.77865947 194.50211008 150.4044225 194.50644784 152.03014374 194.51633835 C154.25454885 194.52907465 156.47817533 194.52317254 158.70257568 194.51275635 C159.94586514 194.51422291 161.18915459 194.51568947 162.47011948 194.51720047 C167.69035101 193.96370925 171.61193322 192.54730765 175.35302734 188.70776367 C177.92375962 184.65391662 178.10320959 181.27132739 178.11987305 176.5222168 C178.1269075 175.39424683 178.13394196 174.26627686 178.14118958 173.10412598 C178.14743599 171.28370789 178.14743599 171.28370789 178.15380859 169.42651367 C178.17699697 166.86009913 178.20111389 164.29369284 178.22607422 161.72729492 C178.26250865 157.6783032 178.29226467 153.62946651 178.30395508 149.58032227 C178.31596837 145.67460016 178.35955384 141.76950724 178.40380859 137.86401367 C178.40190018 136.65040161 178.39999176 135.43678955 178.39802551 134.18640137 C178.41451645 133.0584314 178.43100739 131.93046143 178.44799805 130.76831055 C178.45386429 129.77665894 178.45973053 128.78500732 178.46577454 127.76330566 C179.11888409 124.42536743 180.31717656 123.20267625 182.97802734 121.14526367 C185.81022567 121.21434168 187.34167654 121.66765892 189.6051178 123.36645508 C191.49635647 125.81683618 191.36498824 127.4664701 191.38208008 130.54370117 C191.39476425 131.64915283 191.40744843 132.75460449 191.42051697 133.89355469 C191.41758133 135.09036865 191.41464569 136.28718262 191.41162109 137.52026367 C191.41686295 138.75510498 191.4221048 139.98994629 191.42750549 141.26220703 C191.43558533 144.55265727 191.42845036 147.84269288 191.41717529 151.13311768 C191.41446427 154.44328138 191.44958897 157.75319264 191.47607422 161.06323242 C191.47768788 163.61140908 191.47710556 166.15958825 191.47412109 168.70776367 C191.48535507 169.88838379 191.49658905 171.06900391 191.50816345 172.28540039 C191.42130086 182.75479096 189.2964749 191.76444988 181.89990234 199.49291992 C174.83380825 205.56803741 165.94272659 207.45860545 156.80921936 207.38577271 C156.01511278 207.38748155 155.2210062 207.3891904 154.40283579 207.39095104 C151.7573146 207.39423011 149.11205033 207.38326849 146.46655273 207.37231445 C144.56406663 207.37175 142.66158009 207.37206757 140.75909424 207.37319946 C135.60467614 207.37377263 130.45035138 207.36202406 125.29595494 207.34805155 C119.90543292 207.33553826 114.51490869 207.33437321 109.12437439 207.33200073 C98.92124673 207.32578773 88.71816199 207.30937932 78.51505321 207.28930175 C66.89722192 207.26693718 55.27938857 207.25594791 43.6615411 207.24591088 C19.76701273 207.22501296 -4.12747756 207.18984044 -28.02197266 207.14526367 C-28.06872132 183.5708569 -28.10397557 159.99645709 -28.125597 136.42201328 C-28.13590364 125.47566235 -28.1499523 114.52934024 -28.17285156 103.58300781 C-28.19280414 94.040691 -28.20569354 84.49839506 -28.21014965 74.95605797 C-28.21275385 69.90484306 -28.21886219 64.85368788 -28.23343277 59.80249214 C-28.24704616 55.04440444 -28.2511877 50.28640085 -28.24818802 45.52829552 C-28.2487365 43.78567167 -28.25269149 42.04304489 -28.26038361 40.30043793 C-28.35437067 17.90229665 -28.35437067 17.90229665 -21.09228516 9.22729492 C-14.74382659 2.84290169 -8.92723291 0.03184001 0 0 Z " fill="#06ADEA" transform="translate(28.02197265625,17.854736328125)"/>
<path d="M0 0 C7.60405678 4.35842279 15.59674616 11.97667104 18 20.625 C19.08239137 27.15389265 17.74515465 32.23078522 14 37.625 C6.38552119 47.11166259 6.38552119 47.11166259 1 49.625 C-10.66666667 37.95833333 -22.33333333 26.29166667 -34 14.625 C-14.56019844 -6.12290035 -14.56019844 -6.12290035 0 0 Z " fill="#03ADEA" transform="translate(207,2.375)"/>
<path d="M0 0 C4.81214979 4.01932303 9.37166278 8.21226111 13.80859375 12.640625 C14.72597069 13.55300934 14.72597069 13.55300934 15.66188049 14.48382568 C16.93954318 15.75646742 18.21589307 17.03042842 19.4909668 18.30566406 C21.45147706 20.26396128 23.41988471 22.21409085 25.38867188 24.1640625 C26.63330024 25.4057613 27.87745835 26.64793169 29.12109375 27.890625 C29.71160019 28.47394592 30.30210663 29.05726685 30.9105072 29.65826416 C35 33.77114386 35 33.77114386 35 36 C29.45020399 37.53116273 23.90006344 39.06106817 18.34960938 40.58984375 C16.46409903 41.10936065 14.57868088 41.62921227 12.69335938 42.14941406 C9.97290219 42.89998417 7.25210832 43.64932302 4.53125 44.3984375 C3.69758911 44.6287265 2.86392822 44.8590155 2.00500488 45.09628296 C-2.98092345 46.46750737 -7.97858905 47.76481357 -13 49 C-10.5911387 37.98806263 -7.68301991 27.179897 -4.46264648 16.37695312 C-2.84392962 10.94246397 -1.32440386 5.51397845 0 0 Z " fill="#FDDB41" transform="translate(81,109)"/>
<path d="M0 0 C0.33 0 0.66 0 1 0 C1.2475 1.175625 1.495 2.35125 1.75 3.5625 C3.70532936 11.20851207 7.39040674 16.69694397 14 21 C17.26865464 22.54127803 20.58190364 23.83083223 24 25 C24 25.33 24 25.66 24 26 C16.08 26 8.16 26 0 26 C0 17.42 0 8.84 0 0 Z " fill="#F8FCFE" transform="translate(0,199)"/>
</svg>
